<svg width="22" height="23" viewBox="0 0 22 23" fill="none" xmlns="http://www.w3.org/2000/svg">
<path d="M11 1.97607L9.6985 7.18206C9.44454 8.19792 9.31756 8.70585 9.05308 9.11916C8.81915 9.48475 8.50868 9.79522 8.14309 10.0292C7.72978 10.2936 7.22185 10.4206 6.20599 10.6746L1 11.9761L6.20599 13.2776C7.22185 13.5315 7.72978 13.6585 8.14309 13.923C8.50868 14.1569 8.81915 14.4674 9.05309 14.833C9.31756 15.2463 9.44454 15.7542 9.6985 16.7701L11 21.9761L12.3015 16.7701C12.5555 15.7542 12.6824 15.2463 12.9469 14.833C13.1808 14.4674 13.4913 14.1569 13.8569 13.923C14.2702 13.6585 14.7782 13.5315 15.794 13.2776L21 11.9761L15.794 10.6746C14.7782 10.4206 14.2702 10.2936 13.8569 10.0292C13.4913 9.79523 13.1808 9.48475 12.9469 9.11916C12.6824 8.70585 12.5555 8.19792 12.3015 7.18207L11 1.97607Z" stroke="white" stroke-width="2" stroke-linecap="round" stroke-linejoin="round"/>
</svg>
